<svg width="1246" height="514" viewBox="0 0 1246 514" fill="none" xmlns="http://www.w3.org/2000/svg">
<g clip-path="url(#clip0_32_2152)">
<path d="M119.766 403.46H2.8259C0.779442 400.633 2.826 398.879 3.9954 397.027L35.6668 342.927L155.823 138.126L160.696 129.353C159.834 125.443 158.102 121.778 155.628 118.63C134.676 82.856 113.53 47.1792 92.5777 11.4049C90.413 8.66339 88.8222 5.51391 87.9001 2.14438C88.4848 1.46203 88.5822 1.16974 88.8746 1.07227H89.7517H352.868C358.715 6.43354 453.924 120.58 460.063 129.548C454.606 139.296 448.271 149.823 442.327 160.058L424.201 190.959L406.563 221.08L388.437 251.98C382.395 262.215 376.353 272.548 370.116 283.368C393.309 323.139 416.99 362.617 439.988 402.095C437.942 405.41 435.408 404.63 433.264 404.63H324.12C323.522 404.389 322.964 404.06 322.463 403.655L321.683 403.07C320.514 401.413 319.442 399.756 318.37 398.099L251.714 282.88C265.942 257.926 280.949 233.069 294.982 208.115L338.25 133.544C327.476 118.377 315.655 103.98 302.876 90.4592C300.282 92.8796 298.252 95.8416 296.931 99.1348L208.446 251.59L126.101 393.712L119.766 403.46Z" fill="white"/>
<path d="M541.239 0.864909H697.16C715.446 0.726839 733.647 3.35616 751.147 8.66331C773.288 15.0505 793.182 27.5505 808.545 44.7299C822.962 61.4283 832.236 81.9452 835.247 103.802C838.528 123.23 837.865 143.121 833.298 162.288C829.49 178.071 822.285 192.833 812.187 205.544C802.088 218.255 789.338 228.609 774.827 235.884L768.591 239.003L763.036 241.927C763.816 245.443 765.308 248.76 767.421 251.675C791.589 297.49 815.822 343.239 840.119 388.924L844.212 397.209C844.212 398.184 844.212 398.574 843.627 398.769C843.312 398.881 842.968 398.881 842.653 398.769H834.76H767.714C754.655 374.497 742.377 350.03 729.805 326.246L692.287 254.405C665.798 253.037 639.257 253.037 612.768 254.405C611.613 257.753 611.279 261.33 611.793 264.835V386.389C611.793 389.899 611.793 393.505 611.793 397.697C600.197 398.779 588.539 399.04 576.906 398.477C565.309 398.477 553.713 399.061 541.629 398.477C541.629 396.332 541.044 394.383 540.849 392.531C540.654 390.679 540.849 389.216 540.849 387.559V12.2699C540.849 9.15065 541.142 5.54384 541.239 0.864909ZM612.865 195.041C613.973 195.414 615.116 195.675 616.276 195.82C642.88 195.82 669.386 195.82 695.893 195.82C707.893 195.74 719.743 193.15 730.683 188.217C739.236 184.502 746.777 178.795 752.676 171.571C758.576 164.347 762.663 155.817 764.595 146.692C766.182 139.528 766.805 132.185 766.447 124.857C766.51 111.799 762.376 99.0658 754.656 88.5357C746.936 78.0055 736.038 70.235 723.569 66.3699C712.861 62.7827 701.63 61.004 690.338 61.1064C666.755 61.1064 643.172 61.1064 619.687 61.1064C617.494 61.2102 615.312 61.4706 613.157 61.8861C611.891 69.5868 611.696 184.123 612.865 195.041Z" fill="white"/>
<path d="M1129.11 392.828C1107.36 394.053 1085.56 394.053 1063.82 392.828C1063.09 388.744 1062.87 384.588 1063.13 380.449C1063.13 376.452 1063.13 372.455 1063.13 368.459C1063.56 363.817 1063.2 359.137 1062.06 354.617C1060.21 357.054 1058.94 358.516 1057.97 360.076C1051.09 370.917 1041.75 379.982 1030.71 386.536C1019.67 393.091 1007.24 396.95 994.431 397.8C975.917 400.077 957.135 398.652 939.176 393.608C924.36 389.565 910.899 381.621 900.196 370.603C889.875 359.629 883.086 345.808 880.706 330.93C878.714 319.121 878.714 307.062 880.706 295.253C882.198 285.357 885.876 275.918 891.473 267.622C897.069 259.326 904.444 252.382 913.06 247.294C924.785 240.311 937.549 235.244 950.871 232.282C967.4 228.679 984.124 226.043 1000.96 224.387C1012.56 223.022 1024.06 221.755 1035.55 220C1040.47 219.137 1045.3 217.832 1049.98 216.101C1053.67 215.021 1056.88 212.711 1059.08 209.556C1061.27 206.4 1062.33 202.587 1062.06 198.75C1062.46 188.999 1059.33 179.431 1053.24 171.803C1047.15 164.176 1038.52 159 1028.93 157.225C1015.95 153.972 1002.35 154.139 989.461 157.712C980.792 159.528 972.781 163.672 966.291 169.701C959.801 175.729 955.076 183.413 952.625 191.927C952.251 193.047 951.761 194.125 951.163 195.143C930.406 194.363 909.649 194.266 888.112 192.122C887.82 188.512 888.183 184.879 889.184 181.399C893.591 160.741 905.153 142.304 921.83 129.346C937.108 117.46 955.025 109.435 974.064 105.951C1002.18 100.221 1031.25 101.155 1058.94 108.681C1072.16 112.164 1084.57 118.19 1095.49 126.422C1104.19 132.854 1111.52 140.946 1117.08 150.232C1122.63 159.518 1126.29 169.813 1127.84 180.522C1128.93 187.422 1129.49 194.396 1129.5 201.382C1129.5 261.818 1129.5 322.254 1129.5 382.69C1129.5 385.712 1129.2 388.929 1129.11 392.828ZM1061.87 257.919C1045.75 263.261 1029.18 267.143 1012.36 269.519C1003.2 271.176 993.944 272.346 984.881 274.393C975.768 276.316 967.103 279.955 959.349 285.115C954.749 288.404 951.06 292.808 948.631 297.915C946.202 303.022 945.111 308.663 945.462 314.308C945.813 319.952 947.593 325.415 950.637 330.182C953.68 334.948 957.885 338.862 962.857 341.555C965.92 343.349 969.193 344.757 972.602 345.747C990.035 350.62 1008.58 349.662 1025.42 343.017C1035.35 339.434 1044.02 333.054 1050.4 324.648C1056.78 316.242 1060.6 306.168 1061.38 295.643C1062.84 283.263 1061.87 271.273 1061.87 257.919Z" fill="white"/>
<path d="M1205.43 81.876C1200.05 81.876 1194.73 80.8171 1189.76 78.7597C1184.8 76.7022 1180.29 73.6867 1176.49 69.885C1172.68 66.0833 1169.67 61.57 1167.61 56.6029C1165.56 51.6357 1164.5 46.312 1164.5 40.9356C1164.5 35.5592 1165.56 30.2354 1167.61 25.2683C1169.67 20.3011 1172.68 15.7879 1176.49 11.9862C1180.29 8.18447 1184.8 5.16865 1189.76 3.1112C1194.73 1.05374 1200.05 -0.00518863 1205.43 -0.00518799C1216.17 0.0706576 1226.46 4.36135 1234.08 11.9442C1241.69 19.5271 1246.03 29.7967 1246.16 40.5456C1246.28 45.956 1245.31 51.3351 1243.31 56.3643C1241.31 61.3934 1238.33 65.9704 1234.53 69.8243C1230.73 73.6781 1226.2 76.7306 1221.2 78.8007C1216.2 80.8708 1210.84 81.9164 1205.43 81.876Z" fill="white"/>
<path d="M1239.47 397.902C1217.01 399.17 1194.5 399.17 1172.04 397.902C1172.04 396.245 1171.45 394.393 1171.35 392.443C1171.26 390.494 1171.35 388.446 1171.35 386.497V125.647C1170.99 121.634 1171.26 117.589 1172.13 113.657C1173.44 113.275 1174.78 113.014 1176.13 112.877H1238.2C1238.74 114.861 1239.13 116.881 1239.37 118.921C1239.37 121.553 1239.37 124.184 1239.37 126.914V398L1239.47 397.902Z" fill="white"/>
<path d="M33.036 496.966C30.4732 496.86 27.9271 496.501 25.4348 495.894C17.6351 493.956 10.784 489.295 6.11622 482.75C1.44844 476.206 -0.728998 468.21 -0.0236422 460.202C0.681714 452.194 4.2235 444.701 9.96332 439.074C15.7031 433.447 23.2635 430.056 31.2819 429.512C35.89 429.141 40.5275 429.503 45.0223 430.584C52.9195 432.619 59.8117 437.448 64.4221 444.177C69.0325 450.906 71.0488 459.078 70.0973 467.18C69.1458 475.281 65.2912 482.764 59.2473 488.24C53.2034 493.717 45.38 496.817 37.2262 496.966H33.036ZM60.7118 463.531C60.7118 456.732 58.0116 450.211 53.2051 445.404C48.3987 440.596 41.8798 437.895 35.0825 437.895C28.2851 437.895 21.7661 440.596 16.9597 445.404C12.1532 450.211 9.45299 456.732 9.45299 463.531C9.45299 470.331 12.1532 476.852 16.9597 481.659C21.7661 486.467 28.2851 489.168 35.0825 489.168C41.8798 489.168 48.3987 486.467 53.2051 481.659C58.0116 476.852 60.7118 470.331 60.7118 463.531Z" fill="white"/>
<path d="M144.564 494.055H138.522C137.742 493.47 137.255 493.275 137.255 492.983C136.671 490.156 136.281 487.231 135.696 483.82C128.999 482.443 122.133 482.082 115.329 482.747C108.8 482.747 102.173 482.747 95.2542 482.747L93.6949 493.47L86.8734 493.957C85.3395 488.208 84.9421 482.215 85.7039 476.314C93.9872 471.44 94.8643 470.66 96.2286 461.79C97.1056 455.941 97.0082 449.897 97.4955 443.951C97.1923 440.351 97.7953 436.731 99.2495 433.424C111.546 431.902 123.984 431.902 136.281 433.424C136.281 435.471 136.963 437.713 137.06 439.857C137.06 448.533 137.06 457.111 137.06 465.689C137.06 468.321 137.06 470.855 137.548 473.585L144.564 475.924V494.055ZM126.828 474.559C128.727 463.411 128.529 452.005 126.243 440.929C119.735 440.267 113.163 440.596 106.753 441.904C106.753 447.266 106.071 452.529 105.389 457.696C104.707 462.862 103.732 468.613 102.758 474.559H126.828Z" fill="white"/>
<path d="M209.206 465.619C196.537 467.569 183.576 465.619 170.226 466.984C168.959 472.442 172.37 475.269 175.878 477.706C177.78 479.088 179.952 480.053 182.253 480.54C184.553 481.027 186.929 481.025 189.229 480.533C193.537 479.331 197.767 477.866 201.897 476.147L205.892 480.826C203.101 483.81 199.637 486.084 195.789 487.457C191.941 488.831 187.821 489.264 183.771 488.721C179.954 488.58 176.218 487.577 172.843 485.788C169.468 483.999 166.541 481.469 164.281 478.389C161.002 473.551 159.357 467.791 159.585 461.951C159.813 456.11 161.902 450.496 165.548 445.928C169.373 441.711 174.476 438.864 180.073 437.825C185.671 436.787 191.454 437.613 196.537 440.177C201.116 442.476 204.826 446.199 207.11 450.786C209.395 455.374 210.13 460.578 209.206 465.619ZM200.143 458.016C200.224 456.228 199.834 454.449 199.014 452.858C198.193 451.268 196.969 449.92 195.465 448.95C193.983 447.639 192.254 446.637 190.38 446.001C188.506 445.365 186.525 445.108 184.551 445.246C180.536 445.314 176.699 446.918 173.831 449.73C171.59 452.07 169.251 454.604 170.713 458.406C180.478 459.895 190.421 459.763 200.143 458.016Z" fill="white"/>
<path d="M225.689 487.682C224.229 471.468 224.229 455.156 225.689 438.943C235.385 437.562 245.228 437.562 254.924 438.943C257.257 439.126 259.493 439.951 261.385 441.328C263.277 442.704 264.751 444.578 265.644 446.741C266.608 449.066 266.797 451.64 266.183 454.081C265.569 456.522 264.183 458.7 262.233 460.291C261.746 460.291 261.356 461.363 260.771 462.045C262.363 463.19 263.833 464.497 265.156 465.944C266.514 467.519 267.473 469.397 267.953 471.42C268.432 473.444 268.418 475.553 267.911 477.569C267.405 479.586 266.421 481.451 265.043 483.007C263.664 484.564 261.932 485.766 259.992 486.512C258.174 487.328 256.229 487.823 254.242 487.974C244.733 488.668 235.182 488.57 225.689 487.682ZM234.655 466.724C233.569 471.274 233.569 476.016 234.655 480.566C240.585 481.151 246.558 481.151 252.488 480.566C254.333 480.491 256.078 479.711 257.366 478.388C258.653 477.064 259.383 475.297 259.407 473.45C259.358 471.63 258.613 469.898 257.326 468.611C256.039 467.323 254.307 466.578 252.488 466.529C246.556 465.896 240.571 465.962 234.655 466.724ZM234.655 458.536C240.222 459.208 245.849 459.208 251.416 458.536C252.063 458.619 252.718 458.619 253.365 458.536C254.795 458.115 256.06 457.261 256.985 456.091C257.91 454.921 258.449 453.494 258.53 452.005C258.511 450.654 258.069 449.344 257.264 448.259C256.459 447.174 255.334 446.37 254.047 445.961C252.837 445.444 251.556 445.115 250.247 444.986C245.395 444.352 240.481 444.352 235.629 444.986C235.179 446.017 234.852 447.096 234.655 448.203C234.07 451.517 234.167 454.539 234.167 458.536H234.655Z" fill="white"/>
<path d="M317.973 458.358C316.999 448.61 312.224 444.321 303.064 445.589C298.344 446.565 293.69 447.835 289.128 449.39C288.355 448.695 287.668 447.91 287.082 447.051C286.645 446.194 286.349 445.272 286.205 444.321C286.49 443.731 286.887 443.201 287.374 442.762C291.415 440.155 295.974 438.456 300.735 437.783C305.497 437.109 310.347 437.478 314.953 438.863C318.061 439.536 320.881 441.168 323.014 443.529C325.147 445.89 326.485 448.86 326.841 452.022C327.717 463.736 327.717 475.498 326.841 487.212C322.164 489.356 319.24 488.479 317.096 484.092C311.962 487.856 305.575 489.497 299.263 488.674C296.027 488.202 292.896 487.18 290.005 485.652C287.777 484.503 285.951 482.704 284.767 480.493C283.584 478.282 283.1 475.764 283.379 473.272C283.337 470.577 284.182 467.943 285.785 465.777C287.387 463.61 289.658 462.031 292.247 461.282C296.725 460.198 301.29 459.513 305.89 459.235C309.939 459.483 314.003 459.188 317.973 458.358ZM317.973 467.326C311.576 465.871 304.957 465.672 298.483 466.741C297.015 467.039 295.678 467.793 294.663 468.896C293.648 469.999 293.007 471.394 292.831 472.882C292.658 474.54 293.056 476.208 293.96 477.609C294.864 479.009 296.219 480.059 297.801 480.583C301.32 481.703 305.1 481.703 308.618 480.583C315.44 479.413 317.974 475.709 318.168 467.326H317.973Z" fill="white"/>
<path d="M369.439 446.421C367.685 460.457 369.439 473.714 368.074 487.459L361.448 488.141C360.863 486.874 360.083 485.996 360.083 485.119C360.083 475.859 360.083 466.598 360.083 457.338C360.083 454.024 360.083 450.807 360.083 447.59C354.529 444.179 348.389 447.59 343.127 444.666C342.713 443.815 342.499 442.882 342.499 441.936C342.499 440.991 342.713 440.057 343.127 439.207C343.809 439.207 344.394 438.232 344.979 438.232C357.94 438.232 370.803 438.232 383.959 438.232C384.778 438.115 385.613 438.284 386.323 438.71C387.033 439.136 387.574 439.794 387.857 440.572C388.087 441.092 388.2 441.657 388.189 442.226C388.177 442.795 388.041 443.355 387.79 443.866C387.54 444.377 387.18 444.827 386.737 445.184C386.294 445.541 385.778 445.797 385.226 445.933L369.439 446.421Z" fill="white"/>
<path d="M403.872 438.458L410.791 437.97C413.617 442.942 411.278 447.718 412.837 453.079C415.078 455.516 418.294 454.347 421.12 454.639C425.395 454.697 429.661 455.056 433.886 455.711C437.378 456.323 440.528 458.182 442.751 460.944C444.974 463.705 446.118 467.181 445.97 470.723C446.243 474.398 445.181 478.048 442.979 481.003C440.777 483.958 437.583 486.019 433.984 486.807C432.721 487.265 431.415 487.592 430.086 487.782C421.56 488.562 412.982 488.562 404.456 487.782C403.937 486.818 403.513 485.806 403.189 484.76C403.189 471.113 403.189 457.564 403.189 444.014C403.289 442.149 403.516 440.292 403.872 438.458ZM412.74 480.763H425.506C426.819 480.745 428.126 480.581 429.404 480.276C431.604 479.87 433.563 478.63 434.871 476.813C436.179 474.996 436.734 472.744 436.42 470.528C436.588 468.509 435.973 466.502 434.704 464.924C433.434 463.345 431.606 462.315 429.598 462.047C424.087 460.489 418.251 460.489 412.74 462.047V480.763Z" fill="white"/>
<path d="M507.57 448.142L501.723 451.846C499.774 450.482 498.02 449.117 496.071 447.947C492.671 445.85 488.642 445.014 484.689 445.584C480.735 446.154 477.107 448.094 474.437 451.066C471.681 454.417 470.174 458.62 470.174 462.959C470.174 467.297 471.681 471.501 474.437 474.851C477.087 477.878 480.721 479.871 484.698 480.478C488.674 481.084 492.737 480.265 496.169 478.165C497.825 477.19 499.287 475.826 501.333 474.364L507.18 477.386C506.989 478.431 506.661 479.447 506.206 480.407C502.503 484.454 497.616 487.228 492.243 488.33C486.87 489.433 481.286 488.81 476.289 486.548C471.19 484.435 466.944 480.678 464.225 475.874C461.506 471.07 460.47 465.495 461.281 460.035C461.919 454.905 464.086 450.086 467.5 446.206C470.915 442.326 475.418 439.565 480.424 438.281C485.43 436.998 490.706 437.252 495.566 439.011C500.425 440.77 504.642 443.952 507.668 448.142H507.57Z" fill="white"/>
<path d="M567.011 438.368C567.595 455.524 567.011 471.315 567.011 487.594L560.481 488.179C559.883 487.278 559.423 486.292 559.117 485.254C559.117 481.355 558.63 477.456 558.338 473.557C553.356 472.409 548.216 472.112 543.135 472.68C540.407 476.579 537.776 479.991 535.534 483.597C535.065 484.624 534.394 485.544 533.56 486.305C532.727 487.066 531.748 487.65 530.684 488.023C529.619 488.396 528.49 488.551 527.364 488.477C526.239 488.403 525.139 488.103 524.133 487.594C525.497 481.355 531.344 477.846 533.39 471.51L530.077 469.073C527.055 467.254 524.754 464.445 523.564 461.123C522.374 457.801 522.368 454.17 523.548 450.845C524.231 447.732 525.881 444.915 528.261 442.796C530.641 440.678 533.631 439.367 536.801 439.05C546.815 437.715 556.946 437.486 567.011 438.368ZM558.143 464.784C559.46 458.977 559.46 452.948 558.143 447.141C551.986 445.73 545.589 445.73 539.432 447.141C537.36 447.638 535.522 448.835 534.23 450.53C532.937 452.225 532.269 454.314 532.337 456.444C532.406 458.575 533.208 460.617 534.607 462.225C536.006 463.833 537.917 464.909 540.017 465.271C546.028 466.354 552.198 466.188 558.143 464.784Z" fill="white"/>
<path d="M582.582 465.49C581.997 462.468 581.997 460.519 584.726 460.129C587.455 459.739 588.721 460.129 590.67 460.129H668.144C670.461 460.045 672.78 460.208 675.062 460.616C675.842 460.616 676.524 462.565 676.622 463.638C676.594 464.094 676.443 464.534 676.186 464.912C675.929 465.289 675.574 465.59 675.16 465.782C673.914 466.241 672.587 466.44 671.262 466.367H586.87C585.421 466.182 583.987 465.889 582.582 465.49Z" fill="white"/>
<path d="M691.719 480.537L695.715 476.15L702.049 478.977C706.558 481.181 711.696 481.733 716.569 480.537C719.938 480.012 723.051 478.424 725.453 476.003C727.855 473.583 729.42 470.458 729.92 467.085C728.509 466.709 727.077 466.416 725.632 466.207C721.637 466.207 717.641 466.207 713.743 466.207C709.845 466.207 706.629 467.865 705.655 462.893C705.07 460.066 706.922 459.189 713.159 459.189H724.17C725.73 459.189 727.289 459.189 729.141 458.702C729.104 456.321 728.387 454.001 727.075 452.014C725.762 450.028 723.909 448.459 721.734 447.492C719.94 446.279 717.916 445.445 715.788 445.043C713.659 444.64 711.471 444.678 709.358 445.152C704.721 446.401 700.165 447.931 695.715 449.734L691.622 445.932C692.674 444.56 693.884 443.316 695.228 442.228C698.844 439.867 702.924 438.306 707.193 437.65C711.462 436.995 715.822 437.259 719.98 438.426C725.591 439.589 730.615 442.685 734.177 447.175C737.739 451.664 739.612 457.261 739.47 462.991C739.657 468.688 737.881 474.277 734.439 478.82C730.997 483.363 726.099 486.585 720.565 487.945C715.529 489.347 710.214 489.401 705.151 488.101C700.089 486.8 695.457 484.192 691.719 480.537Z" fill="white"/>
<path d="M773.168 487.733C771.804 473.988 773.168 460.439 772.194 446.695L755.822 445.72C755.286 444.764 754.861 443.75 754.555 442.698C754.459 441.758 754.459 440.811 754.555 439.872C755.14 439.384 755.627 438.604 756.114 438.604H797.823C797.823 438.604 798.408 438.604 798.7 439.092C800.552 440.651 799.675 442.698 799.675 444.648C794.218 447.67 788.273 444.648 782.524 447.182C782.116 449.277 781.823 451.392 781.647 453.518C781.647 462.194 781.647 470.772 781.647 479.35C781.647 481.982 781.646 484.516 781.062 487.733H773.168Z" fill="white"/>
<path d="M842.192 488.854C838.687 489.07 835.174 488.566 831.871 487.373C828.568 486.18 825.544 484.323 822.986 481.917C820.427 479.51 818.389 476.606 816.995 473.381C815.601 470.157 814.882 466.681 814.882 463.169C814.882 459.656 815.601 456.18 816.995 452.956C818.389 449.731 820.427 446.827 822.986 444.42C825.544 442.014 828.568 440.157 831.871 438.964C835.174 437.771 838.687 437.267 842.192 437.483C845.697 437.267 849.209 437.771 852.512 438.964C855.815 440.157 858.839 442.014 861.398 444.42C863.956 446.827 865.995 449.731 867.389 452.956C868.782 456.18 869.501 459.656 869.501 463.169C869.501 466.681 868.782 470.157 867.389 473.381C865.995 476.606 863.956 479.51 861.398 481.917C858.839 484.323 855.815 486.18 852.512 487.373C849.209 488.566 845.697 489.07 842.192 488.854ZM825.723 463.217C825.723 467.69 827.499 471.979 830.661 475.142C833.822 478.304 838.11 480.081 842.582 480.081C847.053 480.081 851.341 478.304 854.503 475.142C857.664 471.979 859.441 467.69 859.441 463.217C859.441 458.745 857.664 454.455 854.503 451.293C851.341 448.13 847.053 446.354 842.582 446.354C838.11 446.354 833.822 448.13 830.661 451.293C827.499 454.455 825.723 458.745 825.723 463.217Z" fill="white"/>
<path d="M929.34 439.171C931.24 455.524 931.24 472.043 929.34 488.397H922.811C922.265 487.492 921.87 486.504 921.641 485.472C921.641 476.212 921.641 466.952 921.641 457.691C921.641 454.377 921.641 451.16 921.641 447.943C912.73 445.76 903.449 445.56 894.452 447.359C894.452 449.503 893.77 451.647 893.77 453.889C893.77 462.467 893.77 471.143 893.77 479.721C893.77 482.256 893.77 484.888 893.186 487.909H884.805C884.122 471.533 884.805 455.742 884.805 439.853C889.64 438.123 894.814 437.556 899.91 438.196C905.172 438.196 910.434 438.196 915.794 438.196C920.329 438.128 924.861 438.455 929.34 439.171Z" fill="white"/>
<path d="M955.543 474.152C954.081 481.853 955.543 489.164 954.471 496.084C953.438 497.018 952.134 497.598 950.749 497.738C949.364 497.878 947.971 497.572 946.772 496.864C946.395 495.662 946.166 494.418 946.09 493.16C945.31 474.737 946.09 438.377 946.772 430.677C952.912 428.727 952.912 428.727 955.543 434.576L960.61 431.749C965.716 428.928 971.633 427.941 977.377 428.952C983.122 429.963 988.347 432.911 992.184 437.305C995.786 441.9 997.832 447.524 998.025 453.36C998.218 459.196 996.547 464.942 993.256 469.765C989.991 474.195 985.358 477.425 980.074 478.958C974.79 480.491 969.149 480.241 964.021 478.246C961.292 477.174 958.759 475.712 955.543 474.152ZM988.676 454.656C988.727 452.442 988.341 450.239 987.542 448.173C986.742 446.108 985.543 444.22 984.014 442.618C982.484 441.016 980.654 439.73 978.629 438.836C976.603 437.941 974.421 437.454 972.207 437.403C969.993 437.352 967.791 437.737 965.726 438.537C963.661 439.337 961.773 440.537 960.171 442.066C956.937 445.156 955.061 449.404 954.958 453.876C954.796 456.191 955.116 458.514 955.898 460.699C956.68 462.883 957.906 464.882 959.5 466.568C961.094 468.254 963.02 469.59 965.157 470.493C967.294 471.396 969.595 471.845 971.914 471.812C974.156 471.84 976.381 471.413 978.453 470.555C980.524 469.698 982.401 468.429 983.968 466.825C985.535 465.22 986.76 463.315 987.569 461.224C988.379 459.132 988.755 456.898 988.676 454.656Z" fill="white"/>
<path d="M1065.18 464.507C1064.64 471.16 1061.58 477.356 1056.62 481.823C1051.66 486.29 1045.18 488.688 1038.51 488.526C1031.84 488.364 1025.48 485.653 1020.75 480.951C1016.01 476.249 1013.25 469.911 1013.04 463.239C1013 459.732 1013.7 456.255 1015.08 453.032C1016.46 449.808 1018.5 446.91 1021.07 444.524C1023.64 442.137 1026.68 440.314 1030 439.172C1033.32 438.031 1036.83 437.596 1040.33 437.895C1043.75 437.872 1047.14 438.558 1050.28 439.911C1053.42 441.263 1056.25 443.253 1058.58 445.753C1060.92 448.253 1062.71 451.211 1063.84 454.439C1064.98 457.667 1065.43 461.095 1065.18 464.507ZM1039.55 445.888C1037.29 445.796 1035.04 446.162 1032.92 446.963C1030.81 447.765 1028.88 448.985 1027.25 450.551C1025.62 452.117 1024.33 453.997 1023.44 456.077C1022.56 458.157 1022.1 460.394 1022.1 462.655C1021.84 464.965 1022.07 467.304 1022.78 469.52C1023.48 471.736 1024.64 473.779 1026.19 475.516C1027.73 477.254 1029.62 478.647 1031.74 479.605C1033.86 480.563 1036.15 481.065 1038.48 481.078C1043.15 481.168 1047.68 479.396 1051.05 476.151C1054.42 472.907 1056.37 468.455 1056.46 463.775C1056.55 459.096 1054.77 454.573 1051.53 451.2C1048.29 447.827 1043.84 445.881 1039.16 445.791L1039.55 445.888Z" fill="white"/>
<path d="M1121.38 474.248L1126.35 477.563C1126.35 482.436 1118.75 487.31 1110.95 488.578C1104.83 489.704 1098.51 488.591 1093.14 485.442C1087.77 482.292 1083.72 477.315 1081.71 471.422C1079.69 465.739 1079.76 459.517 1081.93 453.884C1084.09 448.252 1088.2 443.58 1093.51 440.716C1099.45 437.437 1106.4 436.498 1113 438.084C1115.91 438.576 1118.68 439.705 1121.1 441.39C1123.53 443.075 1125.55 445.275 1127.03 447.832L1121.96 452.316C1120.74 451.689 1119.57 450.972 1118.45 450.171C1116.09 448.042 1113.17 446.613 1110.04 446.045C1106.91 445.477 1103.68 445.792 1100.72 446.955C1098.5 447.905 1096.49 449.29 1094.82 451.03C1093.15 452.77 1091.84 454.828 1090.98 457.083C1090.11 459.337 1089.71 461.742 1089.79 464.155C1089.88 466.568 1090.44 468.94 1091.46 471.129C1092.37 473.183 1093.69 475.031 1095.33 476.563C1096.97 478.095 1098.91 479.278 1101.02 480.043C1103.13 480.808 1105.38 481.138 1107.62 481.013C1109.86 480.889 1112.05 480.312 1114.07 479.317C1116.63 477.819 1119.08 476.124 1121.38 474.248Z" fill="white"/>
<path d="M1168.44 488.141H1160.45C1159.88 487.212 1159.49 486.188 1159.28 485.119C1159.28 475.859 1159.28 466.599 1159.28 457.338C1159.28 454.122 1159.28 450.807 1159.28 447.006L1142.03 445.641V439.695C1156.87 437.696 1171.92 437.696 1186.76 439.695V445.836L1170.19 446.811C1169.68 448.956 1169.36 451.141 1169.22 453.342C1169.22 461.627 1169.22 469.913 1169.22 478.198L1168.44 488.141Z" fill="white"/>
<path d="M1226.22 488.856C1221.19 488.608 1216.34 486.888 1212.28 483.91C1208.21 480.931 1205.12 476.825 1203.36 472.101C1201.61 467.377 1201.29 462.242 1202.43 457.334C1203.56 452.426 1206.12 447.96 1209.77 444.491C1213.42 441.022 1218.02 438.702 1222.97 437.818C1227.93 436.935 1233.04 437.527 1237.67 439.521C1242.29 441.515 1246.23 444.824 1249 449.037C1251.76 453.25 1253.23 458.181 1253.21 463.22C1253.28 466.721 1252.61 470.197 1251.26 473.426C1249.9 476.656 1247.89 479.569 1245.36 481.98C1242.82 484.391 1239.8 486.247 1236.51 487.431C1233.22 488.615 1229.71 489.1 1226.22 488.856ZM1227 480.766C1229.32 480.801 1231.63 480.349 1233.77 479.439C1235.91 478.53 1237.83 477.182 1239.42 475.484C1241.01 473.786 1242.22 471.774 1242.99 469.577C1243.75 467.381 1244.05 465.05 1243.86 462.732C1243.91 460.485 1243.51 458.25 1242.69 456.159C1241.86 454.068 1240.63 452.162 1239.06 450.555C1237.49 448.947 1235.61 447.67 1233.54 446.799C1231.47 445.927 1229.25 445.478 1227 445.479C1222.32 445.479 1217.83 447.338 1214.53 450.647C1211.22 453.955 1209.36 458.443 1209.36 463.122C1209.36 467.802 1211.22 472.289 1214.53 475.598C1217.83 478.907 1222.32 480.766 1227 480.766Z" fill="white"/>
</g>
<defs>
<clipPath id="clip0_32_2152">
<rect width="1246" height="514" fill="white"/>
</clipPath>
</defs>
</svg>
